<svg xmlns="http://www.w3.org/2000/svg" xmlns:xlink="http://www.w3.org/1999/xlink" id="processonSvg1000" viewBox="8.999999999999943 5.121212121212125 733.1666666666667 602.5454545454547" width="733.1666666666667" height="602.5454545454547"><defs id="ProcessOnDefs1001"/><g id="ProcessOnG1002"><path id="ProcessOnPath1003" d="M8.999999999999943 5.121212121212125H742.1666666666667V607.6666666666669H9.0V5.121212121212125Z" fill="none"/><g id="ProcessOnG1004"><g id="ProcessOnG1005" transform="matrix(1.0,0.0,0.0,1.0,476.33333333333303,118.45454545454533)" opacity="1.0"><path id="ProcessOnPath1006" d="M0.0 0.0L100.0 0.0L100.0 70.0L0.0 70.0Z" stroke="#323232" stroke-width="2.0" stroke-dasharray="none" opacity="1.0" fill="#ffffff"/><g id="ProcessOnG1007" transform="matrix(1.0,0.0,0.0,1.0,10.0,26.875)"><text id="ProcessOnText1008" fill="#000000" font-weight="normal" font-style="normal" text-decoration="blink" font-family="微软雅黑" text-anchor="middle" font-size="13" x="40.0" y="13.325">新闻</text></g></g><g id="ProcessOnG1009" transform="matrix(1.0,0.0,0.0,1.0,168.33333333333326,118.45454545454533)" opacity="1.0"><path id="ProcessOnPath1010" d="M0.0 0.0L100.0 0.0L100.0 70.0L0.0 70.0Z" stroke="#323232" stroke-width="2.0" stroke-dasharray="none" opacity="1.0" fill="#ffffff"/><g id="ProcessOnG1011" transform="matrix(1.0,0.0,0.0,1.0,10.0,26.875)"><text id="ProcessOnText1012" fill="#000000" font-weight="normal" font-style="normal" text-decoration="blink" font-family="微软雅黑" text-anchor="middle" font-size="13" x="40.0" y="13.325">执法人员</text></g></g><g id="ProcessOnG1013" transform="matrix(1.0,0.0,0.0,1.0,350.1666666666671,131.45454545454533)" opacity="1.0"><path id="ProcessOnPath1014" d="M0.0 22.0L45.5 0.0L91.0 22.0L45.5 44.0Z" stroke="#323232" stroke-width="2.0" stroke-dasharray="none" opacity="1.0" fill="#ffffff"/><g id="ProcessOnG1015" transform="matrix(1.0,0.0,0.0,1.0,10.0,14.095)"><text id="ProcessOnText1016" fill="#000000" font-weight="normal" font-style="normal" text-decoration="blink" font-family="微软雅黑" text-anchor="middle" font-size="13" x="35.5" y="13.325">发布</text></g></g><g id="ProcessOnG1017"><path id="ProcessOnPath1018" d="M268.3333333333337 153.45454545454535L309.2500000000004 153.45454545454535L309.2500000000004 153.45454545454535L350.1666666666671 153.45454545454535" stroke="#323232" stroke-width="2.0" stroke-dasharray="none" fill="none"/><g id="ProcessOnG1019" transform="matrix(1.0,0.0,0.0,1.0,309.2500000000004,145.32954545454535)"><path id="ProcessOnPath1020" d="M0 0H8.0V16.25H0Z" fill="#fff" transform="matrix(1.0,0.0,0.0,1.0,-4.0,0.0)"/><text id="ProcessOnText1021" fill="#000000" font-weight="normal" font-style="normal" text-decoration="blink" font-family="微软雅黑" text-anchor="middle" font-size="13" x="0.0" y="13.325">1</text></g></g><g id="ProcessOnG1022"><path id="ProcessOnPath1023" d="M441.16666666666686 153.45454545454535L458.75 153.45454545454535L458.75 153.45454545454535L476.33333333333303 153.45454545454535" stroke="#323232" stroke-width="2.0" stroke-dasharray="none" fill="none"/><g id="ProcessOnG1024" transform="matrix(1.0,0.0,0.0,1.0,458.74999999999994,145.32954545454535)"><path id="ProcessOnPath1025" d="M0 0H6.0V16.25H0Z" fill="#fff" transform="matrix(1.0,0.0,0.0,1.0,-3.0,0.0)"/><text id="ProcessOnText1026" fill="#000000" font-weight="normal" font-style="normal" text-decoration="blink" font-family="微软雅黑" text-anchor="middle" font-size="13" x="0.0" y="13.325">*</text></g></g><g id="ProcessOnG1027" transform="matrix(1.0,0.0,0.0,1.0,28.999999999999943,25.121212121212125)" opacity="1.0"><path id="ProcessOnPath1028" d="M0.0 19.0C0.0 -6.333333333333333 90.0 -6.333333333333333 90.0 19.0C90.0 44.333333333333336 0.0 44.333333333333336 0.0 19.0Z" stroke="#323232" stroke-width="2.0" stroke-dasharray="none" opacity="1.0" fill="#ffffff"/><g id="ProcessOnG1029" transform="matrix(1.0,0.0,0.0,1.0,10.0,10.875)"><text id="ProcessOnText1030" fill="#000000" font-weight="normal" font-style="normal" text-decoration="blink" font-family="微软雅黑" text-anchor="middle" font-size="13" x="35.0" y="13.325">name</text></g></g><g id="ProcessOnG1031" transform="matrix(1.0,0.0,0.0,1.0,28.999999999999943,92.12121212121201)" opacity="1.0"><path id="ProcessOnPath1032" d="M0.0 19.0C0.0 -6.333333333333333 90.0 -6.333333333333333 90.0 19.0C90.0 44.333333333333336 0.0 44.333333333333336 0.0 19.0Z" stroke="#323232" stroke-width="2.0" stroke-dasharray="none" opacity="1.0" fill="#ffffff"/><g id="ProcessOnG1033" transform="matrix(1.0,0.0,0.0,1.0,10.0,10.875)"><text id="ProcessOnText1034" fill="#000000" font-weight="normal" font-style="normal" text-decoration="blink" font-family="微软雅黑" text-anchor="middle" font-size="13" x="35.0" y="13.325">id</text></g></g><g id="ProcessOnG1035" transform="matrix(1.0,0.0,0.0,1.0,28.999999999999943,245.4545454545456)" opacity="1.0"><path id="ProcessOnPath1036" d="M0.0 19.0C0.0 -6.333333333333333 90.0 -6.333333333333333 90.0 19.0C90.0 44.333333333333336 0.0 44.333333333333336 0.0 19.0Z" stroke="#323232" stroke-width="2.0" stroke-dasharray="none" opacity="1.0" fill="#ffffff"/><g id="ProcessOnG1037" transform="matrix(1.0,0.0,0.0,1.0,10.0,10.875)"><text id="ProcessOnText1038" fill="#000000" font-weight="normal" font-style="normal" text-decoration="blink" font-family="微软雅黑" text-anchor="middle" font-size="13" x="35.0" y="13.325">locale_id</text></g></g><g id="ProcessOnG1039" transform="matrix(1.0,0.0,0.0,1.0,28.999999999999943,175.45454545454533)" opacity="1.0"><path id="ProcessOnPath1040" d="M0.0 19.0C0.0 -6.333333333333333 90.0 -6.333333333333333 90.0 19.0C90.0 44.333333333333336 0.0 44.333333333333336 0.0 19.0Z" stroke="#323232" stroke-width="2.0" stroke-dasharray="none" opacity="1.0" fill="#ffffff"/><g id="ProcessOnG1041" transform="matrix(1.0,0.0,0.0,1.0,10.0,10.875)"><text id="ProcessOnText1042" fill="#000000" font-weight="normal" font-style="normal" text-decoration="blink" font-family="微软雅黑" text-anchor="middle" font-size="13" x="35.0" y="13.325">passwd</text></g></g><g id="ProcessOnG1043"><path id="ProcessOnPath1044" d="M118.99999999999997 194.45454545454538C144.6586134552209 194.45454545454538 142.6747198781123 153.45454545454535 168.33333333333326 153.45454545454535" stroke="#323232" stroke-width="2.0" stroke-dasharray="none" fill="none"/></g><g id="ProcessOnG1045"><path id="ProcessOnPath1046" d="M118.99999999999997 264.4545454545457C167.58769848886084 264.4545454545457 119.74563484447239 153.45454545454535 168.33333333333326 153.45454545454535" stroke="#323232" stroke-width="2.0" stroke-dasharray="none" fill="none"/></g><g id="ProcessOnG1047"><path id="ProcessOnPath1048" d="M118.99999999999997 111.12121212121201C145.00273489889514 111.12121212121201 142.33059843443806 153.45454545454535 168.33333333333326 153.45454545454535" stroke="#323232" stroke-width="2.0" stroke-dasharray="none" fill="none"/></g><g id="ProcessOnG1049"><path id="ProcessOnPath1050" d="M118.99999999999997 44.121212121212096C166.9792547762977 44.121212121212096 120.35407855703554 153.45454545454535 168.33333333333326 153.45454545454535" stroke="#323232" stroke-width="2.0" stroke-dasharray="none" fill="none"/></g><g id="ProcessOnG1051" transform="matrix(1.0,0.0,0.0,1.0,408.66666666666725,42.78787878787878)" opacity="1.0"><path id="ProcessOnPath1052" d="M0.0 19.0C0.0 -6.333333333333333 90.0 -6.333333333333333 90.0 19.0C90.0 44.333333333333336 0.0 44.333333333333336 0.0 19.0Z" stroke="#323232" stroke-width="2.0" stroke-dasharray="none" opacity="1.0" fill="#ffffff"/><g id="ProcessOnG1053" transform="matrix(1.0,0.0,0.0,1.0,10.0,10.875)"><text id="ProcessOnText1054" fill="#000000" font-weight="normal" font-style="normal" text-decoration="blink" font-family="微软雅黑" text-anchor="middle" font-size="13" x="35.0" y="13.325">id</text></g></g><g id="ProcessOnG1055" transform="matrix(1.0,0.0,0.0,1.0,545.6666666666657,42.78787878787878)" opacity="1.0"><path id="ProcessOnPath1056" d="M0.0 19.0C0.0 -6.333333333333333 90.0 -6.333333333333333 90.0 19.0C90.0 44.333333333333336 0.0 44.333333333333336 0.0 19.0Z" stroke="#323232" stroke-width="2.0" stroke-dasharray="none" opacity="1.0" fill="#ffffff"/><g id="ProcessOnG1057" transform="matrix(1.0,0.0,0.0,1.0,10.0,10.875)"><text id="ProcessOnText1058" fill="#000000" font-weight="normal" font-style="normal" text-decoration="blink" font-family="微软雅黑" text-anchor="middle" font-size="13" x="35.0" y="13.325">content</text></g></g><g id="ProcessOnG1059"><path id="ProcessOnPath1060" d="M453.6666666666667 80.78787878787878C453.6666666666667 113.52738940663332 526.3333333333325 85.71503483579079 526.3333333333325 118.45454545454533" stroke="#323232" stroke-width="2.0" stroke-dasharray="none" fill="none"/></g><g id="ProcessOnG1061"><path id="ProcessOnPath1062" d="M590.6666666666656 80.78787878787878C590.6666666666656 110.6074845681182 526.3333333333325 88.63493967430594 526.3333333333325 118.45454545454533" stroke="#323232" stroke-width="2.0" stroke-dasharray="none" fill="none"/></g><g id="ProcessOnG1063" transform="matrix(1.0,0.0,0.0,1.0,406.0000000000003,453.45454545454567)" opacity="1.0"><path id="ProcessOnPath1064" d="M0.0 0.0L100.0 0.0L100.0 70.0L0.0 70.0Z" stroke="#323232" stroke-width="2.0" stroke-dasharray="none" opacity="1.0" fill="#ffffff"/><g id="ProcessOnG1065" transform="matrix(1.0,0.0,0.0,1.0,10.0,26.875)"><text id="ProcessOnText1066" fill="#000000" font-weight="normal" font-style="normal" text-decoration="blink" font-family="微软雅黑" text-anchor="middle" font-size="13" x="40.0" y="13.325">字典</text></g></g><g id="ProcessOnG1067" transform="matrix(1.0,0.0,0.0,1.0,270.33333333333337,470.1212121212124)" opacity="1.0"><path id="ProcessOnPath1068" d="M0.0 19.0C0.0 -6.333333333333333 90.0 -6.333333333333333 90.0 19.0C90.0 44.333333333333336 0.0 44.333333333333336 0.0 19.0Z" stroke="#323232" stroke-width="2.0" stroke-dasharray="none" opacity="1.0" fill="#ffffff"/><g id="ProcessOnG1069" transform="matrix(1.0,0.0,0.0,1.0,10.0,10.875)"><text id="ProcessOnText1070" fill="#000000" font-weight="normal" font-style="normal" text-decoration="blink" font-family="微软雅黑" text-anchor="middle" font-size="13" x="35.0" y="13.325">id</text></g></g><g id="ProcessOnG1071" transform="matrix(1.0,0.0,0.0,1.0,554.3333333333319,470.1212121212124)" opacity="1.0"><path id="ProcessOnPath1072" d="M0.0 19.0C0.0 -6.333333333333333 90.0 -6.333333333333333 90.0 19.0C90.0 44.333333333333336 0.0 44.333333333333336 0.0 19.0Z" stroke="#323232" stroke-width="2.0" stroke-dasharray="none" opacity="1.0" fill="#ffffff"/><g id="ProcessOnG1073" transform="matrix(1.0,0.0,0.0,1.0,10.0,10.875)"><text id="ProcessOnText1074" fill="#000000" font-weight="normal" font-style="normal" text-decoration="blink" font-family="微软雅黑" text-anchor="middle" font-size="13" x="35.0" y="13.325">category</text></g></g><g id="ProcessOnG1075" transform="matrix(1.0,0.0,0.0,1.0,411.0000000000002,549.6666666666669)" opacity="1.0"><path id="ProcessOnPath1076" d="M0.0 19.0C0.0 -6.333333333333333 90.0 -6.333333333333333 90.0 19.0C90.0 44.333333333333336 0.0 44.333333333333336 0.0 19.0Z" stroke="#323232" stroke-width="2.0" stroke-dasharray="none" opacity="1.0" fill="#ffffff"/><g id="ProcessOnG1077" transform="matrix(1.0,0.0,0.0,1.0,10.0,10.875)"><text id="ProcessOnText1078" fill="#000000" font-weight="normal" font-style="normal" text-decoration="blink" font-family="微软雅黑" text-anchor="middle" font-size="13" x="35.0" y="13.325">value</text></g></g><g id="ProcessOnG1079"><path id="ProcessOnPath1080" d="M360.3333333333334 489.1212121212123C378.6019463683239 489.1212121212123 387.7313869650098 488.45454545454544 406.0000000000003 488.45454545454544" stroke="#323232" stroke-width="2.0" stroke-dasharray="none" fill="none"/></g><g id="ProcessOnG1081"><path id="ProcessOnPath1082" d="M456.0000000000002 549.6666666666669C456.0000000000002 539.1818181818182 456.00000000000006 533.9393939393939 456.00000000000006 523.4545454545453" stroke="#323232" stroke-width="2.0" stroke-dasharray="none" fill="none"/></g><g id="ProcessOnG1083"><path id="ProcessOnPath1084" d="M554.3333333333319 489.1212121212123C534.9981610070021 489.1212121212123 525.3351723263296 488.45454545454544 505.9999999999998 488.45454545454544" stroke="#323232" stroke-width="2.0" stroke-dasharray="none" fill="none"/></g><g id="ProcessOnG1085" transform="matrix(1.0,0.0,0.0,1.0,188.50000000000006,305.4545454545455)" opacity="1.0"><path id="ProcessOnPath1086" d="M0.0 22.0L45.5 0.0L91.0 22.0L45.5 44.0Z" stroke="#323232" stroke-width="2.0" stroke-dasharray="none" opacity="1.0" fill="#ffffff"/><g id="ProcessOnG1087" transform="matrix(1.0,0.0,0.0,1.0,10.0,14.095)"><text id="ProcessOnText1088" fill="#000000" font-weight="normal" font-style="normal" text-decoration="blink" font-family="微软雅黑" text-anchor="middle" font-size="13" x="35.5" y="13.325">映射</text></g></g><g id="ProcessOnG1089"><path id="ProcessOnPath1090" d="M73.99999999999994 283.45454545454567C73.99999999999994 332.5198081156178 139.43473733892785 327.4545454545455 188.50000000000006 327.4545454545455" stroke="#323232" stroke-width="2.0" stroke-dasharray="none" fill="none"/><g id="ProcessOnG1091" transform="matrix(1.0,0.0,0.0,1.0,112.85052650209792,315.72901895244763)"><path id="ProcessOnPath1092" d="M0 0H8.0V16.25H0Z" fill="#fff" transform="matrix(1.0,0.0,0.0,1.0,-4.0,0.0)"/><text id="ProcessOnText1093" fill="#000000" font-weight="normal" font-style="normal" text-decoration="blink" font-family="微软雅黑" text-anchor="middle" font-size="13" x="0.0" y="13.325">1</text></g></g><g id="ProcessOnG1094"><path id="ProcessOnPath1095" d="M234.0000000000002 349.4545454545455C234.0000000000002 447.5157508315956 456.00000000000006 355.3933400774955 456.00000000000006 453.45454545454567" stroke="#323232" stroke-width="2.0" stroke-dasharray="none" fill="none"/><g id="ProcessOnG1096" transform="matrix(1.0,0.0,0.0,1.0,345.0000000000001,393.32954545454555)"><path id="ProcessOnPath1097" d="M0 0H8.0V16.25H0Z" fill="#fff" transform="matrix(1.0,0.0,0.0,1.0,-4.0,0.0)"/><text id="ProcessOnText1098" fill="#000000" font-weight="normal" font-style="normal" text-decoration="blink" font-family="微软雅黑" text-anchor="middle" font-size="13" x="0.0" y="13.325">1</text></g></g><g id="ProcessOnG1099" transform="matrix(1.0,0.0,0.0,1.0,631.6666666666666,239.45454545454544)" opacity="1.0"><path id="ProcessOnPath1100" d="M0.0 19.0C0.0 -6.333333333333333 90.0 -6.333333333333333 90.0 19.0C90.0 44.333333333333336 0.0 44.333333333333336 0.0 19.0Z" stroke="#323232" stroke-width="2.0" stroke-dasharray="none" opacity="1.0" fill="#ffffff"/><g id="ProcessOnG1101" transform="matrix(1.0,0.0,0.0,1.0,10.0,10.875)"><text id="ProcessOnText1102" fill="#000000" font-weight="normal" font-style="normal" text-decoration="blink" font-family="微软雅黑" text-anchor="middle" font-size="13" x="35.0" y="13.325">status_id</text></g></g><g id="ProcessOnG1103" transform="matrix(1.0,0.0,0.0,1.0,481.33333333333303,239.45454545454544)" opacity="1.0"><path id="ProcessOnPath1104" d="M0.0 19.0C0.0 -6.333333333333333 90.0 -6.333333333333333 90.0 19.0C90.0 44.333333333333336 0.0 44.333333333333336 0.0 19.0Z" stroke="#323232" stroke-width="2.0" stroke-dasharray="none" opacity="1.0" fill="#ffffff"/><g id="ProcessOnG1105" transform="matrix(1.0,0.0,0.0,1.0,10.0,10.875)"><text id="ProcessOnText1106" fill="#000000" font-weight="normal" font-style="normal" text-decoration="blink" font-family="微软雅黑" text-anchor="middle" font-size="13" x="35.0" y="13.325">type_id</text></g></g><g id="ProcessOnG1107" transform="matrix(1.0,0.0,0.0,1.0,342.3333333333334,239.45454545454544)" opacity="1.0"><path id="ProcessOnPath1108" d="M0.0 19.0C0.0 -6.333333333333333 90.0 -6.333333333333333 90.0 19.0C90.0 44.333333333333336 0.0 44.333333333333336 0.0 19.0Z" stroke="#323232" stroke-width="2.0" stroke-dasharray="none" opacity="1.0" fill="#ffffff"/><g id="ProcessOnG1109" transform="matrix(1.0,0.0,0.0,1.0,10.0,10.875)"><text id="ProcessOnText1110" fill="#000000" font-weight="normal" font-style="normal" text-decoration="blink" font-family="微软雅黑" text-anchor="middle" font-size="13" x="35.0" y="13.325">file_id</text></g></g><g id="ProcessOnG1111"><path id="ProcessOnPath1112" d="M526.3333333333328 188.45454545454533C526.3333333333328 247.67886478368598 387.3333333333334 180.23022612540487 387.3333333333334 239.45454545454544" stroke="#323232" stroke-width="2.0" stroke-dasharray="none" fill="none"/></g><g id="ProcessOnG1113"><path id="ProcessOnPath1114" d="M526.3333333333328 188.45454545454533C526.3333333333328 208.8545454545453 526.3333333333328 219.05454545454538 526.3333333333328 239.45454545454544" stroke="#323232" stroke-width="2.0" stroke-dasharray="none" fill="none"/></g><g id="ProcessOnG1115"><path id="ProcessOnPath1116" d="M526.3333333333328 188.45454545454533C526.3333333333328 251.95397677308404 676.6666666666666 175.95511413600673 676.6666666666666 239.45454545454544" stroke="#323232" stroke-width="2.0" stroke-dasharray="none" fill="none"/></g><g id="ProcessOnG1117" transform="matrix(1.0,0.0,0.0,1.0,341.8333333333334,305.4545454545455)" opacity="1.0"><path id="ProcessOnPath1118" d="M0.0 22.0L45.5 0.0L91.0 22.0L45.5 44.0Z" stroke="#323232" stroke-width="2.0" stroke-dasharray="none" opacity="1.0" fill="#ffffff"/><g id="ProcessOnG1119" transform="matrix(1.0,0.0,0.0,1.0,10.0,14.095)"><text id="ProcessOnText1120" fill="#000000" font-weight="normal" font-style="normal" text-decoration="blink" font-family="微软雅黑" text-anchor="middle" font-size="13" x="35.5" y="13.325">映射</text></g></g><g id="ProcessOnG1121" transform="matrix(1.0,0.0,0.0,1.0,480.83333333333303,305.45454545454555)" opacity="1.0"><path id="ProcessOnPath1122" d="M0.0 22.0L45.5 0.0L91.0 22.0L45.5 44.0Z" stroke="#323232" stroke-width="2.0" stroke-dasharray="none" opacity="1.0" fill="#ffffff"/><g id="ProcessOnG1123" transform="matrix(1.0,0.0,0.0,1.0,10.0,14.095)"><text id="ProcessOnText1124" fill="#000000" font-weight="normal" font-style="normal" text-decoration="blink" font-family="微软雅黑" text-anchor="middle" font-size="13" x="35.5" y="13.325">映射</text></g></g><g id="ProcessOnG1125" transform="matrix(1.0,0.0,0.0,1.0,631.1666666666666,305.4545454545455)" opacity="1.0"><path id="ProcessOnPath1126" d="M0.0 22.0L45.5 0.0L91.0 22.0L45.5 44.0Z" stroke="#323232" stroke-width="2.0" stroke-dasharray="none" opacity="1.0" fill="#ffffff"/><g id="ProcessOnG1127" transform="matrix(1.0,0.0,0.0,1.0,10.0,14.095)"><text id="ProcessOnText1128" fill="#000000" font-weight="normal" font-style="normal" text-decoration="blink" font-family="微软雅黑" text-anchor="middle" font-size="13" x="35.5" y="13.325">映射</text></g></g><g id="ProcessOnG1129"><path id="ProcessOnPath1130" d="M387.3333333333334 277.4545454545455C387.3333333333334 288.6545454545455 387.3333333333334 294.2545454545455 387.3333333333334 305.4545454545455" stroke="#323232" stroke-width="2.0" stroke-dasharray="none" fill="none"/><g id="ProcessOnG1131" transform="matrix(1.0,0.0,0.0,1.0,387.3333333333334,283.3295454545455)"><path id="ProcessOnPath1132" d="M0 0H8.0V16.25H0Z" fill="#fff" transform="matrix(1.0,0.0,0.0,1.0,-4.0,0.0)"/><text id="ProcessOnText1133" fill="#000000" font-weight="normal" font-style="normal" text-decoration="blink" font-family="微软雅黑" text-anchor="middle" font-size="13" x="0.0" y="13.325">1</text></g></g><g id="ProcessOnG1134"><path id="ProcessOnPath1135" d="M526.3333333333328 277.4545454545455C526.3333333333328 288.65454545454554 526.3333333333328 294.2545454545455 526.3333333333328 305.45454545454555" stroke="#323232" stroke-width="2.0" stroke-dasharray="none" fill="none"/><g id="ProcessOnG1136" transform="matrix(1.0,0.0,0.0,1.0,526.3333333333328,283.32954545454555)"><path id="ProcessOnPath1137" d="M0 0H8.0V16.25H0Z" fill="#fff" transform="matrix(1.0,0.0,0.0,1.0,-4.0,0.0)"/><text id="ProcessOnText1138" fill="#000000" font-weight="normal" font-style="normal" text-decoration="blink" font-family="微软雅黑" text-anchor="middle" font-size="13" x="0.0" y="13.325">1</text></g></g><g id="ProcessOnG1139"><path id="ProcessOnPath1140" d="M676.6666666666666 277.4545454545455C676.6666666666666 288.6545454545455 676.6666666666666 294.2545454545455 676.6666666666666 305.4545454545455" stroke="#323232" stroke-width="2.0" stroke-dasharray="none" fill="none"/><g id="ProcessOnG1141" transform="matrix(1.0,0.0,0.0,1.0,676.6666666666666,283.3295454545455)"><path id="ProcessOnPath1142" d="M0 0H8.0V16.25H0Z" fill="#fff" transform="matrix(1.0,0.0,0.0,1.0,-4.0,0.0)"/><text id="ProcessOnText1143" fill="#000000" font-weight="normal" font-style="normal" text-decoration="blink" font-family="微软雅黑" text-anchor="middle" font-size="13" x="0.0" y="13.325">1</text></g></g><g id="ProcessOnG1144"><path id="ProcessOnPath1145" d="M387.3333333333334 349.4545454545455C387.3333333333334 399.3040968846014 456.00000000000006 403.60499402448977 456.00000000000006 453.45454545454567" stroke="#323232" stroke-width="2.0" stroke-dasharray="none" fill="none"/><g id="ProcessOnG1146" transform="matrix(1.0,0.0,0.0,1.0,421.66666666666674,393.32954545454555)"><path id="ProcessOnPath1147" d="M0 0H8.0V16.25H0Z" fill="#fff" transform="matrix(1.0,0.0,0.0,1.0,-4.0,0.0)"/><text id="ProcessOnText1148" fill="#000000" font-weight="normal" font-style="normal" text-decoration="blink" font-family="微软雅黑" text-anchor="middle" font-size="13" x="0.0" y="13.325">1</text></g></g><g id="ProcessOnG1149"><path id="ProcessOnPath1150" d="M526.3333333333328 349.45454545454555C526.3333333333328 399.6745060722565 456.00000000000006 403.23458483683464 456.00000000000006 453.45454545454567" stroke="#323232" stroke-width="2.0" stroke-dasharray="none" fill="none"/><g id="ProcessOnG1151" transform="matrix(1.0,0.0,0.0,1.0,491.1666666666664,393.32954545454555)"><path id="ProcessOnPath1152" d="M0 0H8.0V16.25H0Z" fill="#fff" transform="matrix(1.0,0.0,0.0,1.0,-4.0,0.0)"/><text id="ProcessOnText1153" fill="#000000" font-weight="normal" font-style="normal" text-decoration="blink" font-family="微软雅黑" text-anchor="middle" font-size="13" x="0.0" y="13.325">1</text></g></g><g id="ProcessOnG1154"><path id="ProcessOnPath1155" d="M676.6666666666666 349.4545454545455C676.6666666666666 447.0330494625722 456.00000000000006 355.87604144651897 456.00000000000006 453.45454545454567" stroke="#323232" stroke-width="2.0" stroke-dasharray="none" fill="none"/><g id="ProcessOnG1156" transform="matrix(1.0,0.0,0.0,1.0,566.3333333333334,393.32954545454555)"><path id="ProcessOnPath1157" d="M0 0H8.0V16.25H0Z" fill="#fff" transform="matrix(1.0,0.0,0.0,1.0,-4.0,0.0)"/><text id="ProcessOnText1158" fill="#000000" font-weight="normal" font-style="normal" text-decoration="blink" font-family="微软雅黑" text-anchor="middle" font-size="13" x="0.0" y="13.325">1</text></g></g></g></g></svg>